<svg id="shopping-cart_1_" data-name="shopping-cart (1)" xmlns="http://www.w3.org/2000/svg" width="24" height="22.082" viewBox="0 0 24 22.082">
  <g id="Group_8" data-name="Group 8">
    <path id="Path_7" data-name="Path 7" d="M18.86,37.363H9.33l-.553-2.214h12.5L24,24.239H6.049L5.1,20.46H0v1.566H3.881L7.735,37.439a2.59,2.59,0,1,0,3,1.489h5.746a2.589,2.589,0,1,0,2.378-1.566Zm-5.406-3.779H11.716l-.388-3.107h2.126v3.107ZM19.308,25.8h2.686l-.777,3.107h-2.3Zm-.584,4.672h2.1l-.777,3.107H18.336ZM15.02,25.8h2.71l-.388,3.107H15.02V25.8Zm0,4.672h2.126l-.388,3.107H15.02V30.477ZM13.454,25.8v3.107H11.132L10.744,25.8h2.71Zm-7.014,0H9.166l.388,3.107H7.217Zm1.168,4.672H9.75l.388,3.107H8.385Zm.75,10.5a1.024,1.024,0,1,1,1.024-1.024A1.025,1.025,0,0,1,8.359,40.976Zm10.5,0a1.024,1.024,0,1,1,1.024-1.024A1.025,1.025,0,0,1,18.86,40.976Z" transform="translate(0 -20.46)" fill="#101010"/>
  </g>
</svg>
